<svg width="64" height="64" viewBox="0 0 64 64" fill="none" xmlns="http://www.w3.org/2000/svg">
<rect x="0.5" y="0.5" width="63" height="63" rx="16.5" fill="white"/>
<rect x="0.5" y="0.5" width="63" height="63" rx="16.5" stroke="#E9E9E9"/>
<path d="M16.9818 21.821H20.3916V24.7021H14.017V14.3066H16.9818V21.821Z" fill="#2C2C2C"/>
<path d="M28.8584 17.2774V24.7031H26.1161V24.0345C25.6403 24.6192 24.9776 24.9096 24.128 24.9096C23.1311 24.9096 22.3152 24.5381 21.6814 23.7961C21.0476 23.0532 20.7336 22.1173 20.7336 20.9903C20.7336 19.8633 21.0476 18.9245 21.6814 18.1825C22.3152 17.4395 23.1301 17.069 24.128 17.069C24.9766 17.069 25.6403 17.3614 26.1161 17.9461V17.2774H28.8584Z" fill="#2C2C2C"/>
<path d="M34.9354 19.8903H33.3789V21.4939C33.3789 21.7419 33.4376 21.9242 33.5571 22.0429C33.6755 22.1616 33.8508 22.2282 34.083 22.2436C34.3151 22.2581 34.5993 22.2562 34.9354 22.2359V24.7012C33.3837 24.9192 32.2789 24.7851 31.6219 24.2998C30.964 23.8144 30.6365 22.9287 30.6365 21.6415V19.8893H29.5992V17.2755H30.6365V16.0134L33.3789 15.1962V17.2755H34.9354V19.8893V19.8903Z" fill="#2C2C2C"/>
<path d="M43.1951 21.9262H38.2711C38.509 22.4212 39.0128 22.6692 39.7853 22.6692C40.239 22.6692 40.659 22.509 41.0452 22.1925L42.8378 23.7093C42.0961 24.5101 41.05 24.9106 39.6948 24.9106C38.43 24.9106 37.4148 24.542 36.649 23.8058C35.8833 23.0677 35.4989 22.1385 35.4989 21.0202C35.4989 19.9019 35.8717 18.9525 36.6201 18.1989C37.3657 17.4473 38.3067 17.069 39.4443 17.069C40.5819 17.069 41.497 17.4376 42.2232 18.1757C42.9514 18.9139 43.3126 19.843 43.3126 20.9613C43.3126 21.2875 43.2741 21.6097 43.1961 21.9262H43.1951Z" fill="#2C2C2C"/>
<path d="M19.6509 26.683H22.6157V37.0786H20.2433L16.9818 32.3266V37.0786H14.017V26.683H16.3894L19.6509 31.4351V26.683Z" fill="#2C2C2C"/>
<path d="M25.3292 29.0885C24.914 29.0885 24.5557 28.938 24.2542 28.636C23.9527 28.334 23.8025 27.9799 23.8025 27.5736C23.8025 27.1674 23.9527 26.8143 24.2542 26.5123C24.5557 26.2103 24.914 26.0598 25.3292 26.0598C25.7443 26.0598 26.0872 26.2112 26.3887 26.5123C26.6902 26.8143 26.8405 27.1684 26.8405 27.5736C26.8405 27.9789 26.6902 28.334 26.3887 28.636C26.0872 28.938 25.7337 29.0885 25.3292 29.0885ZM23.9498 37.0786V29.6529H26.6921V37.0786H23.9498Z" fill="#2C2C2C"/>
<path d="M35.7503 29.653V36.8558C35.7503 37.4501 35.6405 37.9741 35.418 38.4285C35.1955 38.8849 34.8969 39.2429 34.5222 39.5063C34.1446 39.7697 33.7333 39.9627 33.2845 40.0939C32.8327 40.2222 32.3617 40.2849 31.8666 40.2849C30.9978 40.2849 30.2272 40.1277 29.5548 39.8102C28.8806 39.4928 28.3826 39.047 28.057 38.4739L30.2811 37.1819C30.6356 37.6682 31.1162 37.9084 31.7192 37.9084C32.065 37.9084 32.3665 37.8226 32.6247 37.6499C32.8809 37.4762 33.009 37.2108 33.009 36.8558V36.1128C32.5351 36.6975 31.8724 36.988 31.0228 36.988C30.0345 36.988 29.2216 36.6281 28.5829 35.9034C27.9472 35.1807 27.6284 34.2853 27.6284 33.2163C27.6284 32.1472 27.9472 31.2518 28.5829 30.5271C29.2206 29.8045 30.0345 29.4426 31.0228 29.4426C31.8714 29.4426 32.5351 29.735 33.009 30.3197V29.651H35.7513L35.7503 29.653Z" fill="#2C2C2C"/>
<path d="M41.6665 29.4455C42.4765 29.4455 43.1267 29.7253 43.616 30.2849C44.1054 30.8446 44.35 31.6782 44.35 32.7869V37.0786H41.6077V33.084C41.6077 32.4212 41.3014 32.0893 40.6888 32.0893C40.3622 32.0893 40.1128 32.1935 39.9404 32.4009C39.767 32.6084 39.6812 32.8959 39.6812 33.2625V37.0796H36.9389V26.684H39.6812V30.3824C40.1359 29.7591 40.7976 29.4465 41.6684 29.4465L41.6665 29.4455Z" fill="#2C2C2C"/>
<path d="M50.3548 32.2667H48.7982V33.8704C48.7982 34.1183 48.857 34.3007 48.9764 34.4194C49.0949 34.5381 49.2702 34.6046 49.5023 34.6201C49.7345 34.6346 50.0186 34.6326 50.3548 34.6124V37.0776C48.803 37.2957 47.6982 37.1616 47.0413 36.6762C46.3834 36.1909 46.0559 35.3051 46.0559 34.018V32.2658H45.0185V29.6519H46.0559V28.3899L48.7982 27.5726V29.6519H50.3548V32.2658V32.2667Z" fill="#2C2C2C"/>
<path d="M19.0719 49.6924C17.5105 49.6924 16.216 49.1724 15.1872 48.1332C14.1595 47.094 13.6451 45.8021 13.6451 44.2573C13.6451 42.7125 14.1585 41.4206 15.1872 40.3814C16.215 39.3422 17.5096 38.8221 19.0719 38.8221C20.0304 38.8221 20.9156 39.0499 21.7256 39.5053C22.5357 39.9607 23.1686 40.5744 23.6232 41.3472L21.0437 42.8322C20.8751 42.4954 20.6141 42.2282 20.2577 42.0304C19.9022 41.8326 19.5064 41.7332 19.0719 41.7332C18.3399 41.7332 17.7475 41.9705 17.2929 42.4462C16.8382 42.9209 16.6109 43.5259 16.6109 44.2583C16.6109 44.9906 16.8382 45.5946 17.2929 46.0703C17.7475 46.545 18.3399 46.7833 19.0719 46.7833C19.517 46.7833 19.9148 46.6849 20.2654 46.4861C20.616 46.2883 20.8751 46.0163 21.0437 45.6689L23.6232 47.1538C23.1686 47.9364 22.5357 48.5548 21.7256 49.0103C20.9146 49.4657 20.0304 49.6934 19.0719 49.6934V49.6924Z" fill="#2C2C2C"/>
<path d="M24.3649 49.455V38.6137H27.1072V49.455H24.3649Z" fill="#2C2C2C"/>
<path d="M32.8895 42.0294H35.6318V49.455H32.8895V48.7275C32.4348 49.3508 31.7721 49.6634 30.9033 49.6634C30.0923 49.6634 29.4431 49.3836 28.9537 48.824C28.4644 48.2644 28.2198 47.4307 28.2198 46.3221V42.0303H30.9621V46.0249C30.9621 46.6887 31.2684 47.0197 31.881 47.0197C32.2075 47.0197 32.457 46.9155 32.6294 46.708C32.8018 46.5006 32.8885 46.2131 32.8885 45.8464V42.0294H32.8895Z" fill="#2C2C2C"/>
<path d="M44.9424 45.7422C44.9424 46.8692 44.6284 47.8061 43.9946 48.5481C43.3607 49.291 42.5459 49.6616 41.548 49.6616C40.6993 49.6616 40.0357 49.3711 39.5618 48.7864V49.4551H36.8195V39.0595H39.5618V42.6981C40.0357 42.1133 40.6984 41.821 41.548 41.821C42.5449 41.821 43.3607 42.1925 43.9946 42.9344C44.6284 43.6774 44.9424 44.6133 44.9424 45.7422Z" fill="#2C2C2C"/>
<path d="M48.0488 49.18C47.7174 49.512 47.3148 49.6779 46.8409 49.6779C46.367 49.6779 45.9634 49.512 45.633 49.18C45.3017 48.8481 45.136 48.4448 45.136 47.9701C45.136 47.4954 45.3017 47.0911 45.633 46.7601C45.9644 46.4282 46.367 46.2623 46.8409 46.2623C47.3148 46.2623 47.7184 46.4282 48.0488 46.7601C48.3801 47.0921 48.5458 47.4954 48.5458 47.9701C48.5458 48.4448 48.3801 48.8491 48.0488 49.18Z" fill="#2C2C2C"/>
</svg>
