<svg width="159" height="193" viewBox="0 0 159 193" fill="none" xmlns="http://www.w3.org/2000/svg">
<path d="M34.0879 32.7223H44.3985V41.4342H25.1228V10H34.0879V32.7223Z" fill="#2C2C2C"/>
<path d="M70.0006 18.9832V41.4371H61.7083V39.4152C60.2695 41.1832 58.2656 42.0614 55.6967 42.0614C52.6821 42.0614 50.2151 40.9382 48.2986 38.6945C46.3821 36.448 45.4326 33.6179 45.4326 30.2101C45.4326 26.8024 46.3821 23.9636 48.2986 21.7199C50.2151 19.4734 52.6792 18.353 55.6967 18.353C58.2627 18.353 60.2695 19.2371 61.7083 21.0051V18.9832H70.0006Z" fill="#2C2C2C"/>
<path d="M88.3762 26.8841H83.6694V31.7331C83.6694 32.4829 83.847 33.0344 84.2082 33.3932C84.5665 33.7521 85.0965 33.9534 85.7985 34.0001C86.5004 34.0438 87.3597 34.038 88.3762 33.9767V41.4312C83.6839 42.0906 80.3431 41.685 78.3567 40.2175C76.3674 38.7499 75.3771 36.0716 75.3771 32.1795V26.8811H72.2402V18.9774H75.3771V15.1611L83.6694 12.6899V18.9774H88.3762V26.8811V26.8841Z" fill="#2C2C2C"/>
<path d="M113.352 33.0402H98.4626C99.182 34.5369 100.705 35.2868 103.041 35.2868C104.413 35.2868 105.683 34.8025 106.851 33.8455L112.271 38.4319C110.029 40.8535 106.866 42.0644 102.767 42.0644C98.9432 42.0644 95.8733 40.9498 93.5577 38.7237C91.2422 36.4917 90.0801 33.6821 90.0801 30.3006C90.0801 26.9191 91.2073 24.0482 93.4704 21.7695C95.7247 19.4967 98.5704 18.353 102.01 18.353C105.45 18.353 108.217 19.4675 110.413 21.6995C112.615 23.9315 113.707 26.7411 113.707 30.1226C113.707 31.1088 113.591 32.0832 113.355 33.0402H113.352Z" fill="#2C2C2C"/>
<path d="M42.1587 47.4241H51.1238V78.8583H43.95L34.0879 64.4891V78.8583H25.1228V47.4241H32.2966L42.1587 61.7932V47.4241Z" fill="#2C2C2C"/>
<path d="M59.3287 54.6976C58.0733 54.6976 56.9898 54.2425 56.0782 53.3293C55.1665 52.4161 54.7122 51.3453 54.7122 50.117C54.7122 48.8887 55.1665 47.8209 56.0782 46.9077C56.9898 45.9945 58.0733 45.5393 59.3287 45.5393C60.584 45.5393 61.6209 45.9974 62.5325 46.9077C63.4442 47.8209 63.8986 48.8916 63.8986 50.117C63.8986 51.3424 63.4442 52.4161 62.5325 53.3293C61.6209 54.2425 60.552 54.6976 59.3287 54.6976ZM55.1578 78.8583V56.4044H63.45V78.8583H55.1578Z" fill="#2C2C2C"/>
<path d="M90.8402 56.4043V78.1842C90.8402 79.9815 90.5082 81.5657 89.8354 82.9399C89.1626 84.3199 88.2596 85.4024 87.1266 86.1989C85.9849 86.9954 84.7412 87.5789 83.3839 87.9757C82.0179 88.3637 80.5936 88.5534 79.0965 88.5534C76.4694 88.5534 74.1393 88.0778 72.1062 87.1179C70.0674 86.158 68.5616 84.8101 67.5771 83.077L74.3024 79.1704C75.3742 80.6408 76.8276 81.3673 78.6509 81.3673C79.6965 81.3673 80.6082 81.1077 81.3888 80.5854C82.1635 80.0602 82.5509 79.2579 82.5509 78.1842V75.9377C81.1179 77.7057 79.114 78.5839 76.5451 78.5839C73.5567 78.5839 71.0985 77.4957 69.1674 75.3046C67.2451 73.1193 66.281 70.4117 66.281 67.179C66.281 63.9463 67.2451 61.2388 69.1674 59.0477C71.0956 56.8624 73.5567 55.7683 76.5451 55.7683C79.1111 55.7683 81.1179 56.6523 82.5509 58.4204V56.3985H90.8431L90.8402 56.4043Z" fill="#2C2C2C"/>
<path d="M108.73 55.7772C111.179 55.7772 113.145 56.6233 114.625 58.3155C116.104 60.0077 116.844 62.5285 116.844 65.8808V78.8583H108.552V66.7794C108.552 64.775 107.626 63.7714 105.773 63.7714C104.786 63.7714 104.032 64.0865 103.51 64.7138C102.986 65.3411 102.727 66.2105 102.727 67.3192V78.8612H94.4346V47.427H102.727V58.6102C104.102 56.7254 106.103 55.7801 108.736 55.7801L108.73 55.7772Z" fill="#2C2C2C"/>
<path d="M135.002 64.3081H130.295V69.1572C130.295 69.907 130.473 70.4584 130.834 70.8173C131.192 71.1762 131.722 71.3775 132.424 71.4241C133.126 71.4679 133.985 71.4621 135.002 71.4008V78.8553C130.309 79.5146 126.969 79.1091 124.982 77.6416C122.993 76.174 122.003 73.4956 122.003 69.6036V64.3052H118.866V56.4014H122.003V52.5852L130.295 50.114V56.4014H135.002V64.3052V64.3081Z" fill="#2C2C2C"/>
<path d="M40.4082 117C35.6869 117 31.7723 115.427 28.6616 112.285C25.5539 109.143 23.9985 105.236 23.9985 100.565C23.9985 95.8941 25.551 91.9875 28.6616 88.8452C31.7694 85.703 35.684 84.1304 40.4082 84.1304C43.3063 84.1304 45.983 84.8189 48.4325 86.196C50.882 87.5731 52.7956 89.4287 54.1704 91.7657L46.3704 96.2559C45.8607 95.2377 45.0714 94.4295 43.9937 93.8314C42.9189 93.2333 41.7218 92.9328 40.4082 92.9328C38.1947 92.9328 36.4034 93.6505 35.0286 95.0889C33.6539 96.5243 32.9665 98.3537 32.9665 100.568C32.9665 102.783 33.6539 104.609 35.0286 106.047C36.4034 107.483 38.1947 108.203 40.4082 108.203C41.7539 108.203 42.9568 107.906 44.017 107.305C45.0772 106.707 45.8607 105.884 46.3704 104.834L54.1704 109.324C52.7956 111.69 50.882 113.56 48.4325 114.937C45.9801 116.314 43.3063 117.003 40.4082 117.003V117Z" fill="#2C2C2C"/>
<path d="M56.4131 116.282V83.5002H64.7053V116.282H56.4131Z" fill="#2C2C2C"/>
<path d="M82.1897 93.8286H90.482V116.282H82.1897V114.083C80.815 115.967 78.8111 116.913 76.1839 116.913C73.7315 116.913 71.7684 116.067 70.2888 114.374C68.8091 112.682 68.0693 110.161 68.0693 106.809V93.8315H76.3616V105.91C76.3616 107.918 77.2878 108.918 79.1402 108.918C80.1276 108.918 80.882 108.603 81.4033 107.976C81.9247 107.349 82.1868 106.479 82.1868 105.371V93.8286H82.1897Z" fill="#2C2C2C"/>
<path d="M118.635 105.056C118.635 108.463 117.686 111.296 115.769 113.54C113.853 115.787 111.389 116.907 108.371 116.907C105.805 116.907 103.799 116.029 102.365 114.261V116.282H94.0733L94.0732 84.5H102.272L102.365 95.8506C103.799 94.0825 105.802 93.1985 108.371 93.1985C111.386 93.1985 113.853 94.3217 115.769 96.5654C117.686 98.8119 118.635 101.642 118.635 105.056Z" fill="#2C2C2C"/>
<path d="M128.028 115.451C127.027 116.454 125.809 116.956 124.376 116.956C122.943 116.956 121.723 116.454 120.724 115.451C119.722 114.447 119.221 113.228 119.221 111.792C119.221 110.357 119.722 109.134 120.724 108.133C121.726 107.13 122.943 106.628 124.376 106.628C125.809 106.628 127.029 107.13 128.028 108.133C129.03 109.137 129.531 110.357 129.531 111.792C129.531 113.228 129.03 114.45 128.028 115.451Z" fill="#2C2C2C"/>
<path d="M24.0823 157.003V146.094H30.8472V147.511H25.7282V150.835H30.3625V152.246H25.7282V157.003H24.0823ZM32.2435 157.003V148.821H33.8362V157.003H32.2435ZM33.0479 147.559C32.7709 147.559 32.5329 147.466 32.3341 147.282C32.1388 147.093 32.0411 146.87 32.0411 146.611C32.0411 146.348 32.1388 146.124 32.3341 145.939C32.5329 145.751 32.7709 145.657 33.0479 145.657C33.3248 145.657 33.561 145.751 33.7563 145.939C33.9552 146.124 34.0546 146.348 34.0546 146.611C34.0546 146.87 33.9552 147.093 33.7563 147.282C33.561 147.466 33.3248 147.559 33.0479 147.559ZM37.0716 152.145V157.003H35.4789V148.821H37.0076V150.153H37.1088C37.2971 149.72 37.5918 149.372 37.9931 149.109C38.3979 148.846 38.9075 148.715 39.5218 148.715C40.0794 148.715 40.5676 148.832 40.9867 149.066C41.4057 149.297 41.7306 149.641 41.9615 150.1C42.1923 150.558 42.3077 151.124 42.3077 151.799V157.003H40.715V151.991C40.715 151.397 40.5605 150.934 40.2516 150.6C39.9426 150.263 39.5183 150.094 38.9785 150.094C38.6092 150.094 38.2807 150.174 37.9931 150.334C37.709 150.494 37.4835 150.728 37.3166 151.037C37.1532 151.342 37.0716 151.712 37.0716 152.145ZM47.0066 157.163C46.3461 157.163 45.7566 156.994 45.2381 156.657C44.7232 156.316 44.3184 155.831 44.0236 155.203C43.7324 154.57 43.5868 153.812 43.5868 152.928C43.5868 152.044 43.7342 151.287 44.0289 150.659C44.3272 150.03 44.7356 149.549 45.2541 149.215C45.7725 148.881 46.3603 148.715 47.0172 148.715C47.525 148.715 47.9334 148.8 48.2424 148.97C48.5549 149.137 48.7963 149.332 48.9668 149.556C49.1408 149.78 49.2757 149.977 49.3716 150.147H49.4675V146.094H51.0602V157.003H49.5048V155.73H49.3716C49.2757 155.904 49.1373 156.103 48.9561 156.326C48.7786 156.55 48.5336 156.745 48.2211 156.912C47.9086 157.079 47.5037 157.163 47.0066 157.163ZM47.3581 155.804C47.8162 155.804 48.2033 155.684 48.5194 155.442C48.839 155.197 49.0804 154.858 49.2438 154.425C49.4107 153.992 49.4941 153.487 49.4941 152.912C49.4941 152.344 49.4125 151.847 49.2491 151.421C49.0858 150.994 48.8461 150.662 48.53 150.424C48.214 150.187 47.8233 150.068 47.3581 150.068C46.8787 150.068 46.4792 150.192 46.1596 150.44C45.84 150.689 45.5985 151.028 45.4352 151.458C45.2754 151.888 45.1955 152.372 45.1955 152.912C45.1955 153.459 45.2772 153.951 45.4405 154.388C45.6039 154.824 45.8453 155.171 46.165 155.426C46.4881 155.678 46.8858 155.804 47.3581 155.804ZM58.0769 157.003L55.6692 148.821H57.3152L58.9185 154.83H58.9984L60.6071 148.821H62.253L63.851 154.803H63.9309L65.5236 148.821H67.1696L64.7672 157.003H63.1426L61.4806 151.096H61.3581L59.6962 157.003H58.0769ZM69.7737 152.145V157.003H68.181V146.094H69.7524V150.153H69.8536C70.0454 149.712 70.3383 149.363 70.7325 149.103C71.1267 148.844 71.6416 148.715 72.2773 148.715C72.8383 148.715 73.3284 148.83 73.7474 149.061C74.17 149.292 74.4967 149.636 74.7275 150.094C74.9619 150.549 75.0791 151.117 75.0791 151.799V157.003H73.4864V151.991C73.4864 151.39 73.3319 150.925 73.023 150.595C72.714 150.261 72.2844 150.094 71.7339 150.094C71.3575 150.094 71.0202 150.174 70.7219 150.334C70.4271 150.494 70.1945 150.728 70.0241 151.037C69.8572 151.342 69.7737 151.712 69.7737 152.145ZM79.0855 157.184C78.567 157.184 78.0983 157.088 77.6792 156.896C77.2602 156.701 76.9282 156.419 76.6831 156.049C76.4417 155.68 76.3209 155.227 76.3209 154.691C76.3209 154.229 76.4097 153.85 76.5873 153.551C76.7648 153.253 77.0045 153.017 77.3064 152.843C77.6082 152.669 77.9456 152.537 78.3184 152.449C78.6913 152.36 79.0713 152.292 79.4584 152.246C79.9484 152.189 80.3461 152.143 80.6515 152.108C80.9569 152.069 81.1789 152.006 81.3174 151.921C81.4559 151.836 81.5251 151.698 81.5251 151.506V151.468C81.5251 151.003 81.3937 150.643 81.1309 150.387C80.8717 150.131 80.4846 150.004 79.9697 150.004C79.4335 150.004 79.0109 150.123 78.702 150.361C78.3966 150.595 78.1853 150.856 78.0681 151.144L76.5713 150.803C76.7488 150.305 77.0081 149.904 77.349 149.599C77.6934 149.29 78.0894 149.066 78.5368 148.928C78.9843 148.786 79.4548 148.715 79.9484 148.715C80.2751 148.715 80.6214 148.754 80.9871 148.832C81.3564 148.906 81.7009 149.045 82.0205 149.247C82.3437 149.45 82.6082 149.739 82.8142 150.116C83.0202 150.488 83.1231 150.973 83.1231 151.57V157.003H81.5677V155.884H81.5038C81.4008 156.09 81.2464 156.293 81.0404 156.492C80.8344 156.69 80.5699 156.856 80.2467 156.987C79.9236 157.118 79.5365 157.184 79.0855 157.184ZM79.4317 155.906C79.8721 155.906 80.2485 155.819 80.561 155.645C80.877 155.471 81.1167 155.243 81.2801 154.963C81.447 154.679 81.5305 154.375 81.5305 154.052V152.997C81.4736 153.054 81.3635 153.107 81.2002 153.157C81.0404 153.203 80.8575 153.244 80.6515 153.28C80.4456 153.312 80.2449 153.342 80.0496 153.37C79.8543 153.395 79.691 153.416 79.5596 153.434C79.2506 153.473 78.9683 153.539 78.7126 153.631C78.4605 153.723 78.2581 153.857 78.1054 154.031C77.9562 154.201 77.8817 154.428 77.8817 154.712C77.8817 155.107 78.0273 155.405 78.3184 155.607C78.6096 155.806 78.9807 155.906 79.4317 155.906ZM88.5637 148.821V150.1H84.0946V148.821H88.5637ZM85.2931 146.861H86.8858V154.601C86.8858 154.91 86.932 155.142 87.0243 155.298C87.1167 155.451 87.2356 155.556 87.3812 155.613C87.5304 155.666 87.6919 155.693 87.8659 155.693C87.9938 155.693 88.1056 155.684 88.2015 155.666C88.2974 155.648 88.372 155.634 88.4252 155.623L88.7129 156.939C88.6206 156.975 88.4892 157.01 88.3187 157.046C88.1483 157.085 87.9352 157.106 87.6795 157.109C87.2605 157.117 86.8699 157.042 86.5076 156.886C86.1454 156.729 85.8525 156.488 85.6287 156.161C85.405 155.835 85.2931 155.424 85.2931 154.931V146.861ZM91.6047 146.094V147.117C91.6047 147.418 91.5479 147.736 91.4342 148.07C91.3241 148.4 91.1679 148.718 90.9655 149.024C90.7631 149.329 90.5251 149.592 90.2517 149.812L89.4633 149.247C89.6729 148.942 89.854 148.617 90.0067 148.272C90.1629 147.928 90.241 147.548 90.241 147.133V146.094H91.6047ZM97.7417 150.819L96.2982 151.074C96.2378 150.89 96.142 150.714 96.0106 150.547C95.8827 150.38 95.7087 150.243 95.4885 150.137C95.2684 150.03 94.9932 149.977 94.6629 149.977C94.2119 149.977 93.8355 150.078 93.5336 150.281C93.2318 150.479 93.0809 150.737 93.0809 151.053C93.0809 151.326 93.1821 151.547 93.3845 151.714C93.5869 151.88 93.9136 152.017 94.3646 152.124L95.6643 152.422C96.4172 152.596 96.9782 152.864 97.3476 153.226C97.7169 153.589 97.9015 154.059 97.9015 154.638C97.9015 155.128 97.7595 155.565 97.4754 155.948C97.1949 156.328 96.8025 156.627 96.2982 156.843C95.7975 157.06 95.2169 157.168 94.5564 157.168C93.6402 157.168 92.8927 156.973 92.3138 156.582C91.735 156.188 91.3799 155.629 91.2485 154.904L92.7879 154.67C92.8838 155.071 93.0809 155.375 93.3792 155.581C93.6775 155.783 94.0663 155.884 94.5457 155.884C95.0677 155.884 95.485 155.776 95.7975 155.559C96.11 155.339 96.2662 155.071 96.2662 154.755C96.2662 154.499 96.1704 154.285 95.9786 154.111C95.7904 153.937 95.501 153.805 95.1104 153.716L93.7254 153.413C92.9619 153.239 92.3973 152.962 92.0315 152.582C91.6693 152.202 91.4882 151.721 91.4882 151.138C91.4882 150.655 91.6231 150.233 91.893 149.87C92.1629 149.508 92.5358 149.226 93.0116 149.024C93.4875 148.818 94.0326 148.715 94.6469 148.715C95.5312 148.715 96.2272 148.906 96.735 149.29C97.2428 149.67 97.5784 150.179 97.7417 150.819ZM106.069 157.168C105.302 157.168 104.632 156.992 104.061 156.641C103.489 156.289 103.045 155.797 102.729 155.165C102.413 154.533 102.255 153.794 102.255 152.949C102.255 152.101 102.413 151.358 102.729 150.723C103.045 150.087 103.489 149.593 104.061 149.242C104.632 148.89 105.302 148.715 106.069 148.715C106.836 148.715 107.505 148.89 108.077 149.242C108.649 149.593 109.093 150.087 109.409 150.723C109.725 151.358 109.883 152.101 109.883 152.949C109.883 153.794 109.725 154.533 109.409 155.165C109.093 155.797 108.649 156.289 108.077 156.641C107.505 156.992 106.836 157.168 106.069 157.168ZM106.074 155.831C106.571 155.831 106.983 155.7 107.31 155.437C107.637 155.174 107.878 154.824 108.034 154.388C108.194 153.951 108.274 153.47 108.274 152.944C108.274 152.422 108.194 151.943 108.034 151.506C107.878 151.065 107.637 150.712 107.31 150.446C106.983 150.179 106.571 150.046 106.074 150.046C105.573 150.046 105.158 150.179 104.828 150.446C104.501 150.712 104.258 151.065 104.098 151.506C103.942 151.943 103.864 152.422 103.864 152.944C103.864 153.47 103.942 153.951 104.098 154.388C104.258 154.824 104.501 155.174 104.828 155.437C105.158 155.7 105.573 155.831 106.074 155.831ZM111.161 160.071V148.821H112.716V150.147H112.849C112.941 149.977 113.075 149.78 113.249 149.556C113.423 149.332 113.664 149.137 113.973 148.97C114.282 148.8 114.69 148.715 115.198 148.715C115.859 148.715 116.448 148.881 116.967 149.215C117.485 149.549 117.892 150.03 118.186 150.659C118.485 151.287 118.634 152.044 118.634 152.928C118.634 153.812 118.487 154.57 118.192 155.203C117.897 155.831 117.492 156.316 116.977 156.657C116.462 156.994 115.875 157.163 115.214 157.163C114.717 157.163 114.31 157.079 113.994 156.912C113.682 156.745 113.437 156.55 113.259 156.326C113.082 156.103 112.945 155.904 112.849 155.73H112.753V160.071H111.161ZM112.721 152.912C112.721 153.487 112.805 153.992 112.972 154.425C113.138 154.858 113.38 155.197 113.696 155.442C114.012 155.684 114.399 155.804 114.857 155.804C115.333 155.804 115.731 155.678 116.05 155.426C116.37 155.171 116.612 154.824 116.775 154.388C116.942 153.951 117.025 153.459 117.025 152.912C117.025 152.372 116.944 151.888 116.78 151.458C116.62 151.028 116.379 150.689 116.056 150.44C115.736 150.192 115.337 150.068 114.857 150.068C114.396 150.068 114.005 150.187 113.685 150.424C113.369 150.662 113.13 150.994 112.966 151.421C112.803 151.847 112.721 152.344 112.721 152.912ZM123.445 157.168C122.638 157.168 121.944 156.996 121.362 156.651C120.783 156.303 120.336 155.815 120.02 155.187C119.707 154.554 119.551 153.814 119.551 152.965C119.551 152.127 119.707 151.389 120.02 150.749C120.336 150.11 120.776 149.611 121.341 149.253C121.909 148.894 122.573 148.715 123.333 148.715C123.794 148.715 124.242 148.791 124.675 148.944C125.108 149.096 125.497 149.336 125.842 149.663C126.186 149.989 126.458 150.414 126.657 150.936C126.855 151.454 126.955 152.085 126.955 152.827V153.391H120.451V152.198H125.394C125.394 151.779 125.309 151.408 125.138 151.085C124.968 150.758 124.728 150.501 124.419 150.313C124.114 150.124 123.755 150.03 123.343 150.03C122.896 150.03 122.505 150.14 122.172 150.361C121.841 150.577 121.586 150.861 121.404 151.213C121.227 151.561 121.138 151.939 121.138 152.347V153.28C121.138 153.826 121.234 154.292 121.426 154.675C121.621 155.059 121.893 155.352 122.241 155.554C122.589 155.753 122.995 155.852 123.461 155.852C123.762 155.852 124.038 155.81 124.286 155.725C124.535 155.636 124.75 155.504 124.931 155.33C125.112 155.156 125.25 154.941 125.346 154.686L126.854 154.957C126.733 155.401 126.516 155.79 126.204 156.124C125.895 156.454 125.506 156.712 125.037 156.896C124.572 157.078 124.041 157.168 123.445 157.168ZM129.815 152.145V157.003H128.222V148.821H129.751V150.153H129.852C130.04 149.72 130.335 149.372 130.736 149.109C131.141 148.846 131.651 148.715 132.265 148.715C132.823 148.715 133.311 148.832 133.73 149.066C134.149 149.297 134.474 149.641 134.705 150.1C134.935 150.558 135.051 151.124 135.051 151.799V157.003H133.458V151.991C133.458 151.397 133.304 150.934 132.995 150.6C132.686 150.263 132.261 150.094 131.722 150.094C131.352 150.094 131.024 150.174 130.736 150.334C130.452 150.494 130.227 150.728 130.06 151.037C129.896 151.342 129.815 151.712 129.815 152.145ZM13.259 177.003L10.8513 168.821H12.4973L14.1006 174.83H14.1805L15.7892 168.821H17.4351L19.0332 174.803H19.1131L20.7057 168.821H22.3517L19.9494 177.003H18.3247L16.6628 171.096H16.5403L14.8783 177.003H13.259ZM24.9558 172.145V177.003H23.3631V166.094H24.9345V170.153H25.0357C25.2275 169.712 25.5205 169.363 25.9146 169.103C26.3088 168.844 26.8237 168.715 27.4594 168.715C28.0205 168.715 28.5105 168.83 28.9296 169.061C29.3521 169.292 29.6788 169.636 29.9097 170.094C30.144 170.549 30.2612 171.117 30.2612 171.799V177.003H28.6685V171.991C28.6685 171.39 28.5141 170.925 28.2051 170.595C27.8962 170.261 27.4665 170.094 26.9161 170.094C26.5396 170.094 26.2023 170.174 25.904 170.334C25.6092 170.494 25.3766 170.728 25.2062 171.037C25.0393 171.342 24.9558 171.712 24.9558 172.145ZM35.4129 177.168C34.6068 177.168 33.9125 176.996 33.3301 176.651C32.7513 176.303 32.3038 175.815 31.9878 175.187C31.6753 174.554 31.519 173.814 31.519 172.965C31.519 172.127 31.6753 171.389 31.9878 170.749C32.3038 170.11 32.7442 169.611 33.3088 169.253C33.877 168.894 34.5411 168.715 35.301 168.715C35.7627 168.715 36.2101 168.791 36.6433 168.944C37.0766 169.096 37.4654 169.336 37.8099 169.663C38.1543 169.989 38.426 170.414 38.6249 170.936C38.8237 171.454 38.9232 172.085 38.9232 172.827V173.391H32.4193V172.198H37.3624C37.3624 171.779 37.2772 171.408 37.1068 171.085C36.9363 170.758 36.6966 170.501 36.3877 170.313C36.0823 170.124 35.7236 170.03 35.3117 170.03C34.8642 170.03 34.4736 170.14 34.1398 170.361C33.8095 170.577 33.5538 170.861 33.3727 171.213C33.1952 171.561 33.1064 171.939 33.1064 172.347V173.28C33.1064 173.826 33.2023 174.292 33.394 174.675C33.5894 175.059 33.861 175.352 34.209 175.554C34.557 175.753 34.9636 175.852 35.4288 175.852C35.7307 175.852 36.0059 175.81 36.2545 175.725C36.5031 175.636 36.7179 175.504 36.899 175.33C37.0801 175.156 37.2186 174.941 37.3145 174.686L38.822 174.957C38.7012 175.401 38.4846 175.79 38.1721 176.124C37.8631 176.454 37.4743 176.712 37.0055 176.896C36.5403 177.078 36.0095 177.168 35.4129 177.168ZM41.783 172.145V177.003H40.1903V168.821H41.7191V170.153H41.8203C42.0085 169.72 42.3032 169.372 42.7045 169.109C43.1093 168.846 43.6189 168.715 44.2333 168.715C44.7908 168.715 45.2791 168.832 45.6981 169.066C46.1171 169.297 46.4421 169.641 46.6729 170.1C46.9037 170.558 47.0191 171.124 47.0191 171.799V177.003H45.4264V171.991C45.4264 171.397 45.272 170.934 44.963 170.6C44.6541 170.263 44.2297 170.094 43.6899 170.094C43.3206 170.094 42.9921 170.174 42.7045 170.334C42.4204 170.494 42.1949 170.728 42.028 171.037C41.8647 171.342 41.783 171.712 41.783 172.145ZM55.9441 168.821V170.1H51.475V168.821H55.9441ZM52.6735 166.861H54.2662V174.601C54.2662 174.91 54.3124 175.142 54.4047 175.298C54.497 175.451 54.616 175.556 54.7616 175.613C54.9107 175.666 55.0723 175.693 55.2463 175.693C55.3742 175.693 55.486 175.684 55.5819 175.666C55.6778 175.648 55.7524 175.634 55.8056 175.623L56.0933 176.939C56.0009 176.975 55.8695 177.01 55.6991 177.046C55.5286 177.085 55.3156 177.106 55.0599 177.109C54.6408 177.117 54.2502 177.042 53.888 176.886C53.5258 176.729 53.2328 176.488 53.0091 176.161C52.7854 175.835 52.6735 175.424 52.6735 174.931V166.861ZM58.9744 172.145V177.003H57.3817V166.094H58.9531V170.153H59.0543C59.246 169.712 59.539 169.363 59.9332 169.103C60.3274 168.844 60.8423 168.715 61.4779 168.715C62.039 168.715 62.5291 168.83 62.9481 169.061C63.3707 169.292 63.6974 169.636 63.9282 170.094C64.1626 170.549 64.2798 171.117 64.2798 171.799V177.003H62.6871V171.991C62.6871 171.39 62.5326 170.925 62.2237 170.595C61.9147 170.261 61.485 170.094 60.9346 170.094C60.5582 170.094 60.2208 170.174 59.9225 170.334C59.6278 170.494 59.3952 170.728 59.2247 171.037C59.0578 171.342 58.9744 171.712 58.9744 172.145ZM69.4314 177.168C68.6253 177.168 67.9311 176.996 67.3487 176.651C66.7698 176.303 66.3224 175.815 66.0063 175.187C65.6938 174.554 65.5376 173.814 65.5376 172.965C65.5376 172.127 65.6938 171.389 66.0063 170.749C66.3224 170.11 66.7627 169.611 67.3274 169.253C67.8956 168.894 68.5596 168.715 69.3196 168.715C69.7812 168.715 70.2286 168.791 70.6619 168.944C71.0951 169.096 71.484 169.336 71.8284 169.663C72.1729 169.989 72.4446 170.414 72.6434 170.936C72.8423 171.454 72.9417 172.085 72.9417 172.827V173.391H66.4378V172.198H71.381C71.381 171.779 71.2958 171.408 71.1253 171.085C70.9549 170.758 70.7152 170.501 70.4062 170.313C70.1008 170.124 69.7421 170.03 69.3302 170.03C68.8828 170.03 68.4921 170.14 68.1583 170.361C67.8281 170.577 67.5724 170.861 67.3913 171.213C67.2137 171.561 67.125 171.939 67.125 172.347V173.28C67.125 173.826 67.2208 174.292 67.4126 174.675C67.6079 175.059 67.8796 175.352 68.2276 175.554C68.5756 175.753 68.9822 175.852 69.4474 175.852C69.7492 175.852 70.0245 175.81 70.273 175.725C70.5216 175.636 70.7365 175.504 70.9176 175.33C71.0987 175.156 71.2372 174.941 71.3331 174.686L72.8405 174.957C72.7198 175.401 72.5032 175.79 72.1907 176.124C71.8817 176.454 71.4929 176.712 71.0241 176.896C70.5589 177.078 70.028 177.168 69.4314 177.168ZM81.125 177.168C80.3331 177.168 79.6512 176.989 79.0795 176.63C78.5113 176.268 78.0745 175.769 77.7691 175.133C77.4637 174.498 77.311 173.77 77.311 172.949C77.311 172.118 77.4673 171.385 77.7798 170.749C78.0923 170.11 78.5326 169.611 79.1008 169.253C79.669 168.894 80.3384 168.715 81.109 168.715C81.7304 168.715 82.2844 168.83 82.7709 169.061C83.2574 169.288 83.6498 169.608 83.9481 170.02C84.25 170.432 84.4293 170.913 84.4861 171.463H82.936C82.8508 171.08 82.6555 170.749 82.3501 170.472C82.0483 170.195 81.6434 170.057 81.1356 170.057C80.6917 170.057 80.3029 170.174 79.9691 170.408C79.6388 170.639 79.3813 170.97 79.1967 171.399C79.012 171.825 78.9197 172.33 78.9197 172.912C78.9197 173.509 79.0103 174.024 79.1914 174.457C79.3725 174.89 79.6282 175.226 79.9584 175.464C80.2922 175.701 80.6846 175.82 81.1356 175.82C81.4375 175.82 81.7109 175.765 81.9559 175.655C82.2045 175.542 82.4122 175.38 82.5791 175.171C82.7496 174.961 82.8686 174.709 82.936 174.414H84.4861C84.4293 174.943 84.2571 175.416 83.9694 175.831C83.6818 176.247 83.2965 176.573 82.8135 176.811C82.3341 177.049 81.7713 177.168 81.125 177.168ZM85.6893 177.003V168.821H87.282V177.003H85.6893ZM86.4937 167.559C86.2167 167.559 85.9787 167.466 85.7799 167.282C85.5846 167.093 85.4869 166.87 85.4869 166.611C85.4869 166.348 85.5846 166.124 85.7799 165.939C85.9787 165.751 86.2167 165.657 86.4937 165.657C86.7706 165.657 87.0068 165.751 87.2021 165.939C87.401 166.124 87.5004 166.348 87.5004 166.611C87.5004 166.87 87.401 167.093 87.2021 167.282C87.0068 167.466 86.7706 167.559 86.4937 167.559ZM92.7439 168.821V170.1H88.2748V168.821H92.7439ZM89.4733 166.861H91.066V174.601C91.066 174.91 91.1122 175.142 91.2045 175.298C91.2968 175.451 91.4158 175.556 91.5614 175.613C91.7105 175.666 91.8721 175.693 92.0461 175.693C92.174 175.693 92.2858 175.684 92.3817 175.666C92.4776 175.648 92.5522 175.634 92.6054 175.623L92.8931 176.939C92.8007 176.975 92.6693 177.01 92.4989 177.046C92.3284 177.085 92.1154 177.106 91.8597 177.109C91.4407 177.117 91.05 177.042 90.6878 176.886C90.3256 176.729 90.0326 176.488 89.8089 176.161C89.5852 175.835 89.4733 175.424 89.4733 174.931V166.861ZM95.0125 180.071C94.7745 180.071 94.5579 180.052 94.3626 180.013C94.1673 179.977 94.0217 179.938 93.9258 179.895L94.3093 178.59C94.6005 178.668 94.8598 178.702 95.087 178.691C95.3143 178.681 95.515 178.596 95.689 178.436C95.8665 178.276 96.0228 178.015 96.1577 177.653L96.3548 177.109L93.3612 168.821H95.0657L97.1378 175.171H97.2231L99.2951 168.821H101.005L97.6332 178.095C97.477 178.521 97.2781 178.881 97.0366 179.176C96.7951 179.475 96.5075 179.698 96.1737 179.847C95.8399 179.997 95.4528 180.071 95.0125 180.071ZM111.603 170.819L110.159 171.074C110.099 170.89 110.003 170.714 109.871 170.547C109.744 170.38 109.57 170.243 109.349 170.137C109.129 170.03 108.854 169.977 108.524 169.977C108.073 169.977 107.696 170.078 107.394 170.281C107.093 170.479 106.942 170.737 106.942 171.053C106.942 171.326 107.043 171.547 107.245 171.714C107.448 171.88 107.774 172.017 108.225 172.124L109.525 172.422C110.278 172.596 110.839 172.864 111.208 173.226C111.578 173.589 111.762 174.059 111.762 174.638C111.762 175.128 111.62 175.565 111.336 175.948C111.056 176.328 110.663 176.627 110.159 176.843C109.658 177.06 109.078 177.168 108.417 177.168C107.501 177.168 106.754 176.973 106.175 176.582C105.596 176.188 105.241 175.629 105.109 174.904L106.649 174.67C106.745 175.071 106.942 175.375 107.24 175.581C107.538 175.783 107.927 175.884 108.407 175.884C108.929 175.884 109.346 175.776 109.658 175.559C109.971 175.339 110.127 175.071 110.127 174.755C110.127 174.499 110.031 174.285 109.839 174.111C109.651 173.937 109.362 173.805 108.971 173.716L107.586 173.413C106.823 173.239 106.258 172.962 105.892 172.582C105.53 172.202 105.349 171.721 105.349 171.138C105.349 170.655 105.484 170.233 105.754 169.87C106.024 169.508 106.397 169.226 106.872 169.024C107.348 168.818 107.893 168.715 108.508 168.715C109.392 168.715 110.088 168.906 110.596 169.29C111.104 169.67 111.439 170.179 111.603 170.819ZM114.606 166.094V177.003H113.014V166.094H114.606ZM119.775 177.168C118.969 177.168 118.275 176.996 117.692 176.651C117.114 176.303 116.666 175.815 116.35 175.187C116.038 174.554 115.881 173.814 115.881 172.965C115.881 172.127 116.038 171.389 116.35 170.749C116.666 170.11 117.106 169.611 117.671 169.253C118.239 168.894 118.903 168.715 119.663 168.715C120.125 168.715 120.572 168.791 121.006 168.944C121.439 169.096 121.828 169.336 122.172 169.663C122.517 169.989 122.788 170.414 122.987 170.936C123.186 171.454 123.285 172.085 123.285 172.827V173.391H116.782V172.198H121.725C121.725 171.779 121.64 171.408 121.469 171.085C121.299 170.758 121.059 170.501 120.75 170.313C120.445 170.124 120.086 170.03 119.674 170.03C119.227 170.03 118.836 170.14 118.502 170.361C118.172 170.577 117.916 170.861 117.735 171.213C117.557 171.561 117.469 171.939 117.469 172.347V173.28C117.469 173.826 117.565 174.292 117.756 174.675C117.952 175.059 118.223 175.352 118.571 175.554C118.919 175.753 119.326 175.852 119.791 175.852C120.093 175.852 120.368 175.81 120.617 175.725C120.865 175.636 121.08 175.504 121.261 175.33C121.442 175.156 121.581 174.941 121.677 174.686L123.184 174.957C123.064 175.401 122.847 175.79 122.534 176.124C122.225 176.454 121.837 176.712 121.368 176.896C120.903 177.078 120.372 177.168 119.775 177.168ZM128.079 177.168C127.273 177.168 126.579 176.996 125.996 176.651C125.417 176.303 124.97 175.815 124.654 175.187C124.341 174.554 124.185 173.814 124.185 172.965C124.185 172.127 124.341 171.389 124.654 170.749C124.97 170.11 125.41 169.611 125.975 169.253C126.543 168.894 127.207 168.715 127.967 168.715C128.429 168.715 128.876 168.791 129.309 168.944C129.743 169.096 130.131 169.336 130.476 169.663C130.82 169.989 131.092 170.414 131.291 170.936C131.49 171.454 131.589 172.085 131.589 172.827V173.391H125.085V172.198H130.028C130.028 171.779 129.943 171.408 129.773 171.085C129.602 170.758 129.363 170.501 129.054 170.313C128.748 170.124 128.39 170.03 127.978 170.03C127.53 170.03 127.14 170.14 126.806 170.361C126.476 170.577 126.22 170.861 126.039 171.213C125.861 171.561 125.772 171.939 125.772 172.347V173.28C125.772 173.826 125.868 174.292 126.06 174.675C126.255 175.059 126.527 175.352 126.875 175.554C127.223 175.753 127.63 175.852 128.095 175.852C128.397 175.852 128.672 175.81 128.92 175.725C129.169 175.636 129.384 175.504 129.565 175.33C129.746 175.156 129.885 174.941 129.981 174.686L131.488 174.957C131.367 175.401 131.151 175.79 130.838 176.124C130.529 176.454 130.14 176.712 129.672 176.896C129.206 177.078 128.675 177.168 128.079 177.168ZM132.856 180.071V168.821H134.412V170.147H134.545C134.637 169.977 134.77 169.78 134.944 169.556C135.118 169.332 135.36 169.137 135.669 168.97C135.978 168.8 136.386 168.715 136.894 168.715C137.554 168.715 138.144 168.881 138.662 169.215C139.181 169.549 139.587 170.03 139.882 170.659C140.181 171.287 140.33 172.044 140.33 172.928C140.33 173.812 140.182 174.57 139.888 175.203C139.593 175.831 139.188 176.316 138.673 176.657C138.158 176.994 137.57 177.163 136.91 177.163C136.413 177.163 136.006 177.079 135.69 176.912C135.378 176.745 135.133 176.55 134.955 176.326C134.777 176.103 134.641 175.904 134.545 175.73H134.449V180.071H132.856ZM134.417 172.912C134.417 173.487 134.5 173.992 134.667 174.425C134.834 174.858 135.076 175.197 135.392 175.442C135.708 175.684 136.095 175.804 136.553 175.804C137.029 175.804 137.427 175.678 137.746 175.426C138.066 175.171 138.307 174.824 138.471 174.388C138.638 173.951 138.721 173.459 138.721 172.912C138.721 172.372 138.639 171.888 138.476 171.458C138.316 171.028 138.075 170.689 137.752 170.44C137.432 170.192 137.032 170.068 136.553 170.068C136.091 170.068 135.701 170.187 135.381 170.424C135.065 170.662 134.825 170.994 134.662 171.421C134.499 171.847 134.417 172.344 134.417 172.912ZM147.745 170.819L146.302 171.074C146.241 170.89 146.145 170.714 146.014 170.547C145.886 170.38 145.712 170.243 145.492 170.137C145.272 170.03 144.997 169.977 144.666 169.977C144.215 169.977 143.839 170.078 143.537 170.281C143.235 170.479 143.084 170.737 143.084 171.053C143.084 171.326 143.186 171.547 143.388 171.714C143.59 171.88 143.917 172.017 144.368 172.124L145.668 172.422C146.421 172.596 146.982 172.864 147.351 173.226C147.72 173.589 147.905 174.059 147.905 174.638C147.905 175.128 147.763 175.565 147.479 175.948C147.198 176.328 146.806 176.627 146.302 176.843C145.801 177.06 145.22 177.168 144.56 177.168C143.644 177.168 142.896 176.973 142.317 176.582C141.738 176.188 141.383 175.629 141.252 174.904L142.791 174.67C142.887 175.071 143.084 175.375 143.383 175.581C143.681 175.783 144.07 175.884 144.549 175.884C145.071 175.884 145.488 175.776 145.801 175.559C146.113 175.339 146.27 175.071 146.27 174.755C146.27 174.499 146.174 174.285 145.982 174.111C145.794 173.937 145.504 173.805 145.114 173.716L143.729 173.413C142.965 173.239 142.401 172.962 142.035 172.582C141.673 172.202 141.492 171.721 141.492 171.138C141.492 170.655 141.627 170.233 141.896 169.87C142.166 169.508 142.539 169.226 143.015 169.024C143.491 168.818 144.036 168.715 144.65 168.715C145.535 168.715 146.231 168.906 146.738 169.29C147.246 169.67 147.582 170.179 147.745 170.819Z" fill="#2C2C2C"/>
</svg>
